{"title":"The Tourist 2010 BRRip AC3 XviD SAFCuk009 {DragonTrG}","uid":6193962,"size":1763260104,"categoryP":"video","categoryS":"movies","magnet":"?xt=urn:btih:b20193d303b2e6222babf7f8ed170053bc92c7ec&amp;dn=The+Tourist+2010+BRRip+AC3+XviD+SAFCuk009+%7BDragonTrG%7D&amp;tr=udp%3A%2F%2Ftracker.openbittorrent.com%3A80&amp;tr=udp%3A%2F%2Fopen.demonii.com%3A1337&amp;tr=udp%3A%2F%2Ftracker.coppersurfer.tk%3A6969&amp;tr=udp%3A%2F%2Fexodus.desync.com%3A6969","seeders":0,"leechers":1,"uploader":"SAFCukO09","files":3,"time":1298391653,"description":"Format : AVI\nFormat/Info : Audio Video Interleave\nFile size : 1.64 GiB\nDuration : 1h 39mn\nOverall bit rate : 2 362 Kbps\nWriting application : VirtualDubMod 1.5.10.2 (build 2542/release)\nWriting library : VirtualDub build 32839/release\n\nVideo\nID : 0\nFormat : MPEG-4 Visual\nFormat profile : Advanced Simple@L5\nFormat settings, BVOP : Yes\nFormat settings, QPel : No\nFormat settings, GMC : No warppoints\nFormat settings, Matrix : Custom\nCodec ID : XVID\nCodec ID/Hint : XviD\nDuration : 1h 39mn\nBit rate : 1 905 Kbps\nWidth : 720 pixels\nHeight : 304 pixels\nDisplay aspect ratio : 2.35:1\nFrame rate : 23.976 fps\nColor space : YUV\nChroma subsampling : 4:2:0\nBit depth : 8 bits\nScan type : Progressive\nBits/(Pixel*Frame) : 0.363\nStream size : 1.32 GiB (81%)\nWriting library : XviD 1.2.1 (UTC 2008-12-04)\n\nAudio\nID : 1\nFormat : AC-3\nFormat/Info : Audio Coding 3\nMode extension : CM (complete main)\nCodec ID : 2000\nDuration : 1h 39mn\nBit rate mode : Constant\nBit rate : 448 Kbps\nChannel(s) : 6 channels\nChannel positions : Front: L C R, Side: L R, LFE\nSampling rate : 48.0 KHz\nBit depth : 16 bits\nStream size : 319 MiB (19%)\nAlignment : Split accross interleaves\nInterleave, duration : 42 ms (1.00 video frame)\nInterleave, preload duration : 500 ms\n\n\n\n\n &lt;a href=&quot;\nhttp://www.imdb.com/title/tt1243957/&quot; rel=&quot;nofollow&quot; target=&quot;_NEW&quot;&gt;\nhttp://www.imdb.com/title/tt1243957/&lt;/a&gt;\n\n\n\n\n\n\n\nStoryline\n\nElise (Angelina Jolie) sits next to an American tourist, Frank (Johnny Depp), on a train going to Venice. She has chosen him as a decoy, making believe that he is her lover who is wanted for police. Not only will they need to evade the police, but also the mobster whose money her lover stole\n\nUsers: 6.0/10 (20,992 votes) 194 reviews | Critics: 229 reviews Metascore: 37/100 (based on 37 reviews from Metacritic.com)\n\n\nDirector:\nFlorian Henckel von Donnersmarck\nWriters:\nFlorian Henckel von Donnersmarck (screenplay), Christopher McQuarrie (screenplay), and 2 more credits Ã‚Â»\nStars:\nJohnny Depp, Angelina Jolie and Paul Bettany \n\n\nSource used\n\nThe Tourist 2010 BluRay 720p x264 DTS-MySiLU - Thanks\n\nI hardcoded the english subs for the foreign speaking parts .\nAlong the lines of my The Mechanic encode ive gone for quite a high bitrate and video and sound are top quality\n\nEnjoy if your not bored to tears with it\n\n\n\nGreetz to Imagine ,Flawl3ss ,Santi ,Vision ,Kingdom, BDK, TOXiC, iNK, THC, Ez, Rx,\n","torrent":{"xt":"urn:btih:b20193d303b2e6222babf7f8ed170053bc92c7ec","amp;dn":"The+Tourist+2010+BRRip+AC3+XviD+SAFCuk009+%7BDragonTrG%7D","amp;tr":["udp%3A%2F%2Ftracker.openbittorrent.com%3A80","udp%3A%2F%2Fopen.demonii.com%3A1337","udp%3A%2F%2Ftracker.coppersurfer.tk%3A6969","udp%3A%2F%2Fexodus.desync.com%3A6969"],"infoHash":"b20193d303b2e6222babf7f8ed170053bc92c7ec","infoHashBuffer":{"type":"Buffer","data":[178,1,147,211,3,178,230,34,43,171,247,248,237,23,0,83,188,146,199,236]},"announce":[],"urlList":[]}}